<?xml version="1.0" encoding="utf-8"?>
<svg xml:space="preserve" style="height: 100%; width: 100%; background: rgb(255, 255, 255); shape-rendering: auto;" viewBox="0 0 128 128" y="0px" x="0px" xmlns:xlink="http://www.w3.org/1999/xlink" xmlns="http://www.w3.org/2000/svg" id="圖層_1" version="1.1" width="200px" height="200px"><g class="ldl-scale" style="transform-origin: 50% 50%; transform: rotate(0deg) scale(0.8, 0.8);"><g class="ldl-ani"><style type="text/css">.st0{fill:none}.st1,.st2{stroke-width:3}.st1{stroke:#000;stroke-linecap:round;stroke-linejoin:round;stroke-miterlimit:10;fill:#d3edf9}.st2{fill:#e8f0c5}.st2,.st3,.st4{stroke:#000;stroke-linecap:round;stroke-linejoin:round;stroke-miterlimit:10}.st3{stroke-width:3;fill:#f8eaa3}.st4{fill:none}.st4,.st5,.st6{stroke-width:3}.st5{stroke:#000;stroke-linecap:round;stroke-linejoin:round;stroke-miterlimit:10;fill:#fce9f2}.st6{fill:#fff}.st6,.st7,.st8{stroke:#000;stroke-linecap:round;stroke-linejoin:round;stroke-miterlimit:10}.st7{fill:#ef66b2;stroke-width:3}.st8{stroke-width:.25}</style><g class="ldl-layer"><g class="ldl-ani" style="transform: scale(0.91); transform-origin: 64px 64px; animation: 1.11111s linear -0.583333s infinite normal forwards running breath-3b53ef6b-bcde-4b55-b02a-1839c1b371f0;"><path d="z" class="st0"></path></g></g><g class="ldl-layer"><g class="ldl-ani"><g><g class="ldl-layer"><g class="ldl-ani" style="transform: scale(0.91); transform-origin: 64px 64px; animation: 1.11111s linear -0.611111s infinite normal forwards running breath-3b53ef6b-bcde-4b55-b02a-1839c1b371f0;"><path d="M117,45.8c0-4.6-1.7-8.8-4.5-12c0.3-0.9,0.4-1.9,0.4-2.9c0-5.9-4.8-10.7-10.7-10.7c-0.2,0-0.3,0-0.5,0 c-2.5-4-6.1-7.2-10.4-9.2C80.9,6.1,69,9,61.9,17.2c-1.5-0.8-3.1-1.2-4.8-1.2c-5.5,0-10,4.3-10.3,9.7c-8.1,2.2-14.1,9.6-14.1,18.4 c0,9.1,6.4,16.8,15,18.6c1.2,10,9.7,17.8,20.1,17.8c5.8,0,11-2.4,14.7-6.3c3.4,3.5,8.1,5.5,13,5.5c10,0,18.2-8.1,18.2-18.2 c0-1.6-0.2-3.1-0.6-4.5C115.6,53.8,117,49.9,117,45.8z" class="st1" style="fill: rgb(211, 237, 249);"></path></g></g><g class="ldl-layer"><g class="ldl-ani"><g><g class="ldl-layer"><g class="ldl-ani" style="transform: scale(0.91); transform-origin: 64px 64px; animation: 1.11111s linear -0.638889s infinite normal forwards running breath-3b53ef6b-bcde-4b55-b02a-1839c1b371f0;"><ellipse ry="3.8" rx="4" cy="69.2" cx="12.1" class="st1" style="fill: rgb(211, 237, 249);"></ellipse></g></g><g class="ldl-layer"><g class="ldl-ani" style="transform: scale(0.91); transform-origin: 64px 64px; animation: 1.11111s linear -0.666667s infinite normal forwards running breath-3b53ef6b-bcde-4b55-b02a-1839c1b371f0;"><path d="M23.3,51.8c1.9,1.7,2,4.7,0.2,6.5c-0.1,0.1-0.2,0.2-0.2,0.2c-2,1.9-5.2,1.9-7.1,0s-2-4.9,0-6.8 S21.3,49.9,23.3,51.8z" class="st1" style="fill: rgb(211, 237, 249);"></path></g></g></g></g></g><g class="ldl-layer"><g class="ldl-ani"><g><g class="ldl-layer"><g class="ldl-ani" style="transform: scale(0.91); transform-origin: 64px 64px; animation: 1.11111s linear -0.694444s infinite normal forwards running breath-3b53ef6b-bcde-4b55-b02a-1839c1b371f0;"><path d="M51.4,29.8h57v37.4h-57V29.8z" class="st2" style="fill: rgb(232, 240, 197);"></path></g></g><g class="ldl-layer"><g class="ldl-ani"><g><g class="ldl-layer"><g class="ldl-ani" style="transform: scale(0.91); transform-origin: 64px 64px; animation: 1.11111s linear -0.722222s infinite normal forwards running breath-3b53ef6b-bcde-4b55-b02a-1839c1b371f0;"><circle r="12.2" cy="48.5" cx="79.9" class="st3" style="fill: rgb(248, 234, 163);"></circle></g></g><g class="ldl-layer"><g class="ldl-ani"><g><g class="ldl-layer"><g class="ldl-ani" style="transform: scale(0.91); transform-origin: 64px 64px; animation: 1.11111s linear -0.75s infinite normal forwards running breath-3b53ef6b-bcde-4b55-b02a-1839c1b371f0;"><path d="M75.7,52c0.3,1.5,2.1,2.7,4.2,2.7c2.3,0,4.2-1.4,4.2-3.1s-1.9-3.1-4.2-3.1s-4.2-1.4-4.2-3.1 c0-1.7,1.9-3.1,4.2-3.1c2.3,0,4.2,1.4,4.2,3.1" class="st4" style=""></path></g></g><g class="ldl-layer"><g class="ldl-ani" style="transform: scale(0.91); transform-origin: 64px 64px; animation: 1.11111s linear -0.777778s infinite normal forwards running breath-3b53ef6b-bcde-4b55-b02a-1839c1b371f0;"><path d="M80,54.7v2.8" class="st4" style=""></path></g></g><g class="ldl-layer"><g class="ldl-ani" style="transform: scale(0.91); transform-origin: 64px 64px; animation: 1.11111s linear -0.805556s infinite normal forwards running breath-3b53ef6b-bcde-4b55-b02a-1839c1b371f0;"><path d="M80,39.5v2.6" class="st4" style=""></path></g></g></g></g></g></g></g></g></g></g></g><g class="ldl-layer"><g class="ldl-ani"><g><g class="ldl-layer"><g class="ldl-ani" style="transform: scale(0.91); transform-origin: 64px 64px; animation: 1.11111s linear -0.833333s infinite normal forwards running breath-3b53ef6b-bcde-4b55-b02a-1839c1b371f0;"><path d="M62.9,20.8h57v37.4h-57V20.8z" class="st2" style="fill: rgb(232, 240, 197);"></path></g></g><g class="ldl-layer"><g class="ldl-ani"><g><g class="ldl-layer"><g class="ldl-ani" style="transform: scale(0.91); transform-origin: 64px 64px; animation: 1.11111s linear -0.861111s infinite normal forwards running breath-3b53ef6b-bcde-4b55-b02a-1839c1b371f0;"><circle r="12.2" cy="39.5" cx="91.4" class="st3" style="fill: rgb(248, 234, 163);"></circle></g></g><g class="ldl-layer"><g class="ldl-ani"><g><g class="ldl-layer"><g class="ldl-ani" style="transform: scale(0.91); transform-origin: 64px 64px; animation: 1.11111s linear -0.888889s infinite normal forwards running breath-3b53ef6b-bcde-4b55-b02a-1839c1b371f0;"><path d="M87.2,43.1c0.3,1.5,2.1,2.7,4.2,2.7c2.3,0,4.2-1.4,4.2-3.1c0-1.7-1.9-3.1-4.2-3.1c-2.3,0-4.2-1.4-4.2-3.1 c0-1.7,1.9-3.1,4.2-3.1c2.3,0,4.2,1.4,4.2,3.1" class="st4" style=""></path></g></g><g class="ldl-layer"><g class="ldl-ani" style="transform: scale(0.91); transform-origin: 64px 64px; animation: 1.11111s linear -0.916667s infinite normal forwards running breath-3b53ef6b-bcde-4b55-b02a-1839c1b371f0;"><path d="M91.5,45.7v2.8" class="st4" style=""></path></g></g><g class="ldl-layer"><g class="ldl-ani" style="transform: scale(0.91); transform-origin: 64px 64px; animation: 1.11111s linear -0.944444s infinite normal forwards running breath-3b53ef6b-bcde-4b55-b02a-1839c1b371f0;"><path d="M91.5,30.6v2.6" class="st4" style=""></path></g></g></g></g></g></g></g></g></g></g></g></g></g></g><g class="ldl-layer"><g class="ldl-ani"><g><g class="ldl-layer"><g class="ldl-ani" style="transform: scale(0.91); transform-origin: 64px 64px; animation: 1.11111s linear -0.972222s infinite normal forwards running breath-3b53ef6b-bcde-4b55-b02a-1839c1b371f0;"><path d="M61.3,96.8c0-10.3-10-18.7-22.4-18.7c-9.3,0-17.4,4.8-20.7,11.5h-2.3c-1.7,0-3,1.3-3,3v7.5c0,1.7,1.4,3,3,3h2 c1.4,3.2,3.8,6,6.9,8.1l-1.5,5.4l10.2,2.7l1.4-5.1c1,0.5,2.4,1,4.1,1.2c3.3,0.4,5.9-0.4,7.1-1l1.3,4.8l10.2-2.7l-2-7.4 C59.1,106,61.3,101.6,61.3,96.8z" class="st5" style="fill: rgb(252, 233, 242);"></path></g></g><g class="ldl-layer"><g class="ldl-ani" style="transform: scale(0.91); transform-origin: 64px 64px; animation: 1.11111s linear -1s infinite normal forwards running breath-3b53ef6b-bcde-4b55-b02a-1839c1b371f0;"><path d="M45.3,85.6c-2-1.1-4-1.6-6.1-1.3c-0.4,0.1-0.8,0.1-1.2,0.2" class="st6" style="fill: rgb(255, 255, 255);"></path></g></g><g class="ldl-layer"><g class="ldl-ani" style="transform: scale(0.91); transform-origin: 64px 64px; animation: 1.11111s linear -1.02778s infinite normal forwards running breath-3b53ef6b-bcde-4b55-b02a-1839c1b371f0;"><path d="M29.5,76.3c-2.7-2.2-6.6-1.8-8.8,0.9l9.7,7.9C32.6,82.4,32.2,78.5,29.5,76.3z" class="st7" style="fill: rgb(239, 102, 178);"></path></g></g><g class="ldl-layer"><g class="ldl-ani" style="transform: scale(0.91); transform-origin: 64px 64px; animation: 1.11111s linear -1.05556s infinite normal forwards running breath-3b53ef6b-bcde-4b55-b02a-1839c1b371f0;"><circle r="2.2" cy="91.1" cx="26.5" class="st8" style=""></circle></g></g><g class="ldl-layer"><g class="ldl-ani" style="transform: scale(0.91); transform-origin: 64px 64px; animation: 1.11111s linear -1.08333s infinite normal forwards running breath-3b53ef6b-bcde-4b55-b02a-1839c1b371f0;"><path d="M61.6,96.3c1.2-2.1,3.5-3.4,5.8-4.1c1.2-0.4,2.8-0.6,3.7,0.3c0.8,0.7,0.9,2,0.5,3c-0.4,1-1.2,2-2.3,2.1 c-1,0.1-2-0.5-2.5-1.4c-0.5-0.8-0.6-1.9-0.4-2.9c0.4-2,2.1-3.8,4.1-4.3c0.6-0.2,1.4-0.2,2,0.1" class="st4" style=""></path></g></g></g></g></g><g class="ldl-layer"><g class="ldl-ani" style="transform: scale(0.91); transform-origin: 64px 64px; animation: 1.11111s linear -1.11111s infinite normal forwards running breath-3b53ef6b-bcde-4b55-b02a-1839c1b371f0;"><path d="z" class="st0"></path></g></g><metadata xmlns:d="https://loading.io/stock/">
<d:name>banknote</d:name>
<d:tags>banknote,paper money,bill,goal,achieve</d:tags>
<d:license>by</d:license>
<d:slug>oxntut</d:slug>
</metadata></g></g><style id="breath-3b53ef6b-bcde-4b55-b02a-1839c1b371f0" data-anikit="">@keyframes breath-3b53ef6b-bcde-4b55-b02a-1839c1b371f0
{
  0% {
    animation-timing-function: cubic-bezier(0.9647,0.2413,-0.0705,0.7911);
    transform: scale(0.9099999999999999);
  }
  51% {
    animation-timing-function: cubic-bezier(0.9226,0.2631,-0.0308,0.7628);
    transform: scale(1.02994);
  }
  100% {
    transform: scale(0.9099999999999999);
  }
}</style><!-- [ldio] generated by https://loading.io/ --></svg>