<?xml version="1.0" encoding="utf-8"?>
<svg viewBox="0 0 100 100" xmlns="http://www.w3.org/2000/svg" style="height: 100%; width: 100%; background: rgb(255, 255, 255); shape-rendering: auto;" width="200px" height="200px"><g class="ldl-scale" style="transform-origin: 50% 50%; transform: rotate(0deg) scale(0.8, 0.8);"><g class="ldl-ani"><g class="ldl-layer"><g class="ldl-ani" style="transform: scale(0.91); transform-origin: 50px 50px; animation: 1.11111s linear -0.617284s infinite normal forwards running breath-ae9da79a-a61f-4fea-9908-913345e26c01;"><circle fill="#f5e169" r="40" cy="50" cx="50" style="fill: rgb(245, 225, 105);"></circle></g></g><g class="ldl-layer"><g class="ldl-ani" style="transform: scale(0.91); transform-origin: 50px 50px; animation: 1.11111s linear -0.679012s infinite normal forwards running breath-ae9da79a-a61f-4fea-9908-913345e26c01;"><circle stroke-miterlimit="10" stroke-linejoin="round" stroke-linecap="round" stroke-width="6" stroke="#f7b26a" fill="none" r="30" cy="50" cx="50" style="stroke: rgb(247, 178, 106);"></circle></g></g><g class="ldl-layer"><g class="ldl-ani" style="transform: scale(0.91); transform-origin: 50px 50px; animation: 1.11111s linear -0.740741s infinite normal forwards running breath-ae9da79a-a61f-4fea-9908-913345e26c01;"><path opacity=".1" d="M21.716 78.284C28.954 85.523 38.954 90 50 90c22.091 0 40-17.909 40-40 0-11.046-4.477-21.046-11.716-28.284L21.716 78.284z" style=""></path></g></g><g class="ldl-layer"><g class="ldl-ani"><g><g class="ldl-layer"><g class="ldl-ani" style="transform: scale(0.91); transform-origin: 50px 50px; animation: 1.11111s linear -0.802469s infinite normal forwards running breath-ae9da79a-a61f-4fea-9908-913345e26c01;"><path stroke-miterlimit="10" stroke-linejoin="round" stroke-linecap="round" stroke-width="4" stroke="#f47e5f" fill="none" d="M57.263 38.525H46.262a5.738 5.738 0 0 0-5.738 5.738v0a5.738 5.738 0 0 0 5.738 5.738h7.475a5.738 5.738 0 0 1 5.738 5.738v0a5.738 5.738 0 0 1-5.738 5.738H40.525" style="stroke: rgb(244, 126, 95);"></path></g></g><g class="ldl-layer"><g class="ldl-ani" style="transform: scale(0.91); transform-origin: 50px 50px; animation: 1.11111s linear -0.864198s infinite normal forwards running breath-ae9da79a-a61f-4fea-9908-913345e26c01;"><path d="M50 61.476V67.5" stroke-miterlimit="10" stroke-linejoin="round" stroke-linecap="round" stroke-width="4" stroke="#f47e5f" fill="none" style="stroke: rgb(244, 126, 95);"></path></g></g><g class="ldl-layer"><g class="ldl-ani" style="transform: scale(0.91); transform-origin: 50px 50px; animation: 1.11111s linear -0.925926s infinite normal forwards running breath-ae9da79a-a61f-4fea-9908-913345e26c01;"><path d="M50 32.5v6.024" stroke-miterlimit="10" stroke-linejoin="round" stroke-linecap="round" stroke-width="4" stroke="#f47e5f" fill="none" style="stroke: rgb(244, 126, 95);"></path></g></g></g></g></g><g class="ldl-layer"><g class="ldl-ani" style="transform: scale(0.91); transform-origin: 50px 50px; animation: 1.11111s linear -0.987654s infinite normal forwards running breath-ae9da79a-a61f-4fea-9908-913345e26c01;"><path fill="#fff" d="M42.395 19.487l-3.801-.271a5.88 5.88 0 0 1-5.45-5.506l-.267-4.38a.513.513 0 0 0-.512-.481h-.115a.513.513 0 0 0-.512.481l-.267 4.38a5.88 5.88 0 0 1-5.45 5.506l-3.801.271c-.24.017-.456.186-.496.424a.514.514 0 0 0 .469.601l3.829.273a5.88 5.88 0 0 1 5.45 5.506l.267 4.38c.017.27.241.481.512.481h.115a.513.513 0 0 0 .512-.481l.267-4.38a5.88 5.88 0 0 1 5.45-5.506l3.828-.273a.513.513 0 0 0 .469-.601.535.535 0 0 0-.497-.424z" style="fill: rgb(255, 255, 255);"></path></g></g><g class="ldl-layer"><g class="ldl-ani" style="transform: scale(0.91); transform-origin: 50px 50px; animation: 1.11111s linear -1.04938s infinite normal forwards running breath-ae9da79a-a61f-4fea-9908-913345e26c01;"><path fill="#fff" d="M26.138 59.809l-2.313-.165a3.577 3.577 0 0 1-3.316-3.35l-.163-2.665a.311.311 0 0 0-.311-.293h-.07a.311.311 0 0 0-.311.293l-.163 2.665a3.576 3.576 0 0 1-3.316 3.35l-2.313.165a.324.324 0 0 0-.302.258.311.311 0 0 0 .285.365l2.329.166a3.577 3.577 0 0 1 3.316 3.35l.163 2.665c.01.165.146.293.311.293h.07a.311.311 0 0 0 .311-.293l.163-2.665a3.576 3.576 0 0 1 3.316-3.35l2.329-.166a.312.312 0 0 0 .285-.365c-.023-.144-.154-.247-.3-.258z" style="fill: rgb(255, 255, 255);"></path></g></g><g class="ldl-layer"><g class="ldl-ani" style="transform: scale(0.91); transform-origin: 50px 50px; animation: 1.11111s linear -1.11111s infinite normal forwards running breath-ae9da79a-a61f-4fea-9908-913345e26c01;"><path fill="#fff" d="M93.406 37.919l-4.485-.32a6.936 6.936 0 0 1-6.43-6.496l-.316-5.168a.605.605 0 0 0-.604-.568h-.135a.605.605 0 0 0-.604.568l-.316 5.168a6.937 6.937 0 0 1-6.43 6.496l-4.485.32c-.283.02-.537.22-.585.5a.606.606 0 0 0 .553.709l4.517.322a6.936 6.936 0 0 1 6.43 6.496l.316 5.168a.605.605 0 0 0 .604.568h.135c.32 0 .584-.249.604-.568l.316-5.168a6.937 6.937 0 0 1 6.43-6.496l4.517-.322a.606.606 0 0 0 .553-.709c-.048-.28-.302-.48-.585-.5z" style="fill: rgb(255, 255, 255);"></path></g></g><metadata xmlns:d="https://loading.io/stock/">
<d:name>money</d:name>
<d:tags>money,price,revenue,profit,evaluation,value,dollar,bucks,cent,coin,credit,currency</d:tags>
<d:license>by</d:license>
<d:slug>23tqnq</d:slug>
</metadata></g></g><style id="breath-ae9da79a-a61f-4fea-9908-913345e26c01" data-anikit="">@keyframes breath-ae9da79a-a61f-4fea-9908-913345e26c01
{
  0% {
    animation-timing-function: cubic-bezier(0.9647,0.2413,-0.0705,0.7911);
    transform: scale(0.9099999999999999);
  }
  51% {
    animation-timing-function: cubic-bezier(0.9226,0.2631,-0.0308,0.7628);
    transform: scale(1.02994);
  }
  100% {
    transform: scale(0.9099999999999999);
  }
}</style><!-- [ldio] generated by https://loading.io/ --></svg>